<mxfile host="app.diagrams.net" modified="2022-12-02T12:13:59.567Z" agent="5.0 (Windows NT 10.0; Win64; x64) AppleWebKit/537.36 (KHTML, like Gecko) Chrome/108.0.0.0 Safari/537.36" version="20.6.0" etag="N02pgoyB11LP4hqNinTc" type="github">
  <diagram id="VbZzM86osfQT1TRjQhkb" name="第 1 页">
    <mxGraphModel dx="870" dy="538" grid="1" gridSize="10" guides="1" tooltips="1" connect="1" arrows="1" fold="1" page="1" pageScale="1" pageWidth="827" pageHeight="1169" math="0" shadow="0">
      <root>
        <mxCell id="0" />
        <mxCell id="1" parent="0" />
        <mxCell id="s9kO7aDO0OgzluPXa4A7-4" style="edgeStyle=orthogonalEdgeStyle;rounded=0;orthogonalLoop=1;jettySize=auto;html=1;exitX=1;exitY=0.5;exitDx=0;exitDy=0;entryX=0;entryY=0.5;entryDx=0;entryDy=0;" edge="1" parent="1" source="s9kO7aDO0OgzluPXa4A7-1" target="s9kO7aDO0OgzluPXa4A7-2">
          <mxGeometry relative="1" as="geometry" />
        </mxCell>
        <mxCell id="s9kO7aDO0OgzluPXa4A7-1" value="00" style="ellipse;whiteSpace=wrap;html=1;" vertex="1" parent="1">
          <mxGeometry x="300" y="120" width="80" height="50" as="geometry" />
        </mxCell>
        <mxCell id="s9kO7aDO0OgzluPXa4A7-5" style="rounded=0;orthogonalLoop=1;jettySize=auto;html=1;exitX=0;exitY=1;exitDx=0;exitDy=0;entryX=1;entryY=0;entryDx=0;entryDy=0;" edge="1" parent="1" source="s9kO7aDO0OgzluPXa4A7-2" target="s9kO7aDO0OgzluPXa4A7-3">
          <mxGeometry relative="1" as="geometry" />
        </mxCell>
        <mxCell id="s9kO7aDO0OgzluPXa4A7-2" value="01" style="ellipse;whiteSpace=wrap;html=1;" vertex="1" parent="1">
          <mxGeometry x="500" y="120" width="80" height="50" as="geometry" />
        </mxCell>
        <mxCell id="s9kO7aDO0OgzluPXa4A7-3" value="11" style="ellipse;whiteSpace=wrap;html=1;" vertex="1" parent="1">
          <mxGeometry x="395" y="190" width="80" height="50" as="geometry" />
        </mxCell>
        <mxCell id="s9kO7aDO0OgzluPXa4A7-6" value="文件读 &amp;amp; 块设备读" style="text;html=1;strokeColor=none;fillColor=none;align=center;verticalAlign=middle;whiteSpace=wrap;rounded=0;" vertex="1" parent="1">
          <mxGeometry x="380" y="120" width="110" height="30" as="geometry" />
        </mxCell>
        <mxCell id="s9kO7aDO0OgzluPXa4A7-7" value="文件写" style="text;html=1;strokeColor=none;fillColor=none;align=center;verticalAlign=middle;whiteSpace=wrap;rounded=0;" vertex="1" parent="1">
          <mxGeometry x="475" y="180" width="60" height="30" as="geometry" />
        </mxCell>
        <mxCell id="s9kO7aDO0OgzluPXa4A7-8" value="" style="endArrow=none;dashed=1;html=1;rounded=0;" edge="1" parent="1">
          <mxGeometry width="50" height="50" relative="1" as="geometry">
            <mxPoint x="250" y="180" as="sourcePoint" />
            <mxPoint x="660" y="180" as="targetPoint" />
          </mxGeometry>
        </mxCell>
        <mxCell id="s9kO7aDO0OgzluPXa4A7-9" value="干净页" style="text;html=1;strokeColor=none;fillColor=none;align=center;verticalAlign=middle;whiteSpace=wrap;rounded=0;" vertex="1" parent="1">
          <mxGeometry x="610" y="150" width="60" height="30" as="geometry" />
        </mxCell>
        <mxCell id="s9kO7aDO0OgzluPXa4A7-10" value="脏页" style="text;html=1;strokeColor=none;fillColor=none;align=center;verticalAlign=middle;whiteSpace=wrap;rounded=0;" vertex="1" parent="1">
          <mxGeometry x="610" y="180" width="60" height="30" as="geometry" />
        </mxCell>
      </root>
    </mxGraphModel>
  </diagram>
</mxfile>
